<mxfile host="localhost" modified="2020-05-20T15:16:22.486Z" agent="5.0 (Macintosh; Intel Mac OS X 10_15_4) AppleWebKit/537.36 (KHTML, like Gecko) Code/1.45.1 Chrome/78.0.3904.130 Electron/7.2.4 Safari/537.36" etag="K338zsARNwSYTD88ukTM" version="13.0.9">
    <diagram id="6hGFLwfOUW9BJ-s0fimq" name="Page-1">
        <mxGraphModel dx="1095" dy="545" grid="1" gridSize="10" guides="1" tooltips="1" connect="1" arrows="1" fold="1" page="1" pageScale="1" pageWidth="827" pageHeight="1169" math="0" shadow="0">
            <root>
                <mxCell id="0"/>
                <mxCell id="1" parent="0"/>
                <mxCell id="5" value="" style="points=[[0,0,0],[0.25,0,0],[0.5,0,0],[0.75,0,0],[1,0,0],[1,0.25,0],[1,0.5,0],[1,0.75,0],[1,1,0],[0.75,1,0],[0.5,1,0],[0.25,1,0],[0,1,0],[0,0.75,0],[0,0.5,0],[0,0.25,0]];rounded=1;absoluteArcSize=1;arcSize=2;html=1;strokeColor=#E6E6E6;gradientColor=none;shadow=0;fontSize=12;fontColor=#9E9E9E;align=left;verticalAlign=top;spacing=10;spacingTop=-4;strokeWidth=2;" parent="1" vertex="1">
                    <mxGeometry x="80" y="200" width="790" height="300" as="geometry"/>
                </mxCell>
                <mxCell id="6" value="" style="points=[[0,0,0],[0.25,0,0],[0.5,0,0],[0.75,0,0],[1,0,0],[1,0.25,0],[1,0.5,0],[1,0.75,0],[1,1,0],[0.75,1,0],[0.5,1,0],[0.25,1,0],[0,1,0],[0,0.75,0],[0,0.5,0],[0,0.25,0]];rounded=1;absoluteArcSize=1;arcSize=2;html=1;strokeColor=#E6E6E6;gradientColor=none;shadow=0;dashed=1;fontSize=12;fontColor=#9E9E9E;align=left;verticalAlign=top;spacing=10;spacingTop=-4;strokeWidth=2;" parent="1" vertex="1">
                    <mxGeometry x="120" y="240" width="110" height="240" as="geometry"/>
                </mxCell>
                <mxCell id="7" value="" style="points=[[0,0,0],[0.25,0,0],[0.5,0,0],[0.75,0,0],[1,0,0],[1,0.25,0],[1,0.5,0],[1,0.75,0],[1,1,0],[0.75,1,0],[0.5,1,0],[0.25,1,0],[0,1,0],[0,0.75,0],[0,0.5,0],[0,0.25,0]];rounded=1;absoluteArcSize=1;arcSize=2;html=1;strokeColor=#E6E6E6;gradientColor=none;shadow=0;dashed=1;fontSize=12;fontColor=#9E9E9E;align=left;verticalAlign=top;spacing=10;spacingTop=-4;strokeWidth=2;" parent="1" vertex="1">
                    <mxGeometry x="325" y="240" width="110" height="240" as="geometry"/>
                </mxCell>
                <mxCell id="8" value="" style="points=[[0,0,0],[0.25,0,0],[0.5,0,0],[0.75,0,0],[1,0,0],[1,0.25,0],[1,0.5,0],[1,0.75,0],[1,1,0],[0.75,1,0],[0.5,1,0],[0.25,1,0],[0,1,0],[0,0.75,0],[0,0.5,0],[0,0.25,0]];rounded=1;absoluteArcSize=1;arcSize=2;html=1;strokeColor=#E6E6E6;gradientColor=none;shadow=0;dashed=1;fontSize=12;fontColor=#9E9E9E;align=left;verticalAlign=top;spacing=10;spacingTop=-4;strokeWidth=2;" parent="1" vertex="1">
                    <mxGeometry x="530" y="240" width="300" height="240" as="geometry"/>
                </mxCell>
                <mxCell id="9" value="&lt;font color=&quot;#e6e6e6&quot;&gt;&lt;b&gt;Consul&lt;br&gt;Server&lt;br&gt;&lt;br&gt;&lt;/b&gt;&lt;/font&gt;" style="points=[[0,0,0],[0.25,0,0],[0.5,0,0],[0.75,0,0],[1,0,0],[1,0.25,0],[1,0.5,0],[1,0.75,0],[1,1,0],[0.75,1,0],[0.5,1,0],[0.25,1,0],[0,1,0],[0,0.75,0],[0,0.5,0],[0,0.25,0]];rounded=1;absoluteArcSize=1;arcSize=2;html=1;strokeColor=none;gradientColor=none;shadow=0;dashed=1;fontSize=12;fontColor=#9E9E9E;align=left;verticalAlign=top;spacing=10;spacingTop=-4;fillColor=#CA2171;glass=0;" parent="1" vertex="1">
                    <mxGeometry x="135" y="260" width="80" height="80" as="geometry"/>
                </mxCell>
                <mxCell id="10" value="&lt;b&gt;&lt;font color=&quot;#e6e6e6&quot;&gt;Consul&lt;br&gt;Server&lt;/font&gt;&lt;/b&gt;" style="points=[[0,0,0],[0.25,0,0],[0.5,0,0],[0.75,0,0],[1,0,0],[1,0.25,0],[1,0.5,0],[1,0.75,0],[1,1,0],[0.75,1,0],[0.5,1,0],[0.25,1,0],[0,1,0],[0,0.75,0],[0,0.5,0],[0,0.25,0]];rounded=1;absoluteArcSize=1;arcSize=2;html=1;strokeColor=none;gradientColor=none;shadow=0;dashed=1;fontSize=12;fontColor=#9E9E9E;align=left;verticalAlign=top;spacing=10;spacingTop=-4;fillColor=#CA2171;glass=0;" parent="1" vertex="1">
                    <mxGeometry x="340" y="260" width="80" height="80" as="geometry"/>
                </mxCell>
                <mxCell id="11" value="&lt;b&gt;&lt;font color=&quot;#e6e6e6&quot;&gt;Consul&lt;br&gt;Server&lt;/font&gt;&lt;/b&gt;" style="points=[[0,0,0],[0.25,0,0],[0.5,0,0],[0.75,0,0],[1,0,0],[1,0.25,0],[1,0.5,0],[1,0.75,0],[1,1,0],[0.75,1,0],[0.5,1,0],[0.25,1,0],[0,1,0],[0,0.75,0],[0,0.5,0],[0,0.25,0]];rounded=1;absoluteArcSize=1;arcSize=2;html=1;strokeColor=none;gradientColor=none;shadow=0;dashed=1;fontSize=12;fontColor=#9E9E9E;align=left;verticalAlign=top;spacing=10;spacingTop=-4;fillColor=#CA2171;glass=0;" parent="1" vertex="1">
                    <mxGeometry x="545" y="260" width="80" height="80" as="geometry"/>
                </mxCell>
                <mxCell id="12" value="&lt;font color=&quot;#ca2171&quot;&gt;&lt;b&gt;Consul&lt;br&gt;Client&lt;/b&gt;&lt;/font&gt;" style="points=[[0,0,0],[0.25,0,0],[0.5,0,0],[0.75,0,0],[1,0,0],[1,0.25,0],[1,0.5,0],[1,0.75,0],[1,1,0],[0.75,1,0],[0.5,1,0],[0.25,1,0],[0,1,0],[0,0.75,0],[0,0.5,0],[0,0.25,0]];rounded=1;absoluteArcSize=1;arcSize=2;html=1;strokeColor=#CA2171;gradientColor=none;shadow=0;fontSize=12;fontColor=#9E9E9E;align=left;verticalAlign=top;spacing=10;spacingTop=-4;fillColor=#FFFFFF;glass=0;" parent="1" vertex="1">
                    <mxGeometry x="135" y="380" width="80" height="80" as="geometry"/>
                </mxCell>
                <mxCell id="13" value="&lt;b&gt;&lt;font color=&quot;#ca2171&quot;&gt;Consul&lt;br&gt;Client&lt;/font&gt;&lt;/b&gt;" style="points=[[0,0,0],[0.25,0,0],[0.5,0,0],[0.75,0,0],[1,0,0],[1,0.25,0],[1,0.5,0],[1,0.75,0],[1,1,0],[0.75,1,0],[0.5,1,0],[0.25,1,0],[0,1,0],[0,0.75,0],[0,0.5,0],[0,0.25,0]];rounded=1;absoluteArcSize=1;arcSize=2;html=1;strokeColor=#CA2171;gradientColor=none;shadow=0;fontSize=12;fontColor=#9E9E9E;align=left;verticalAlign=top;spacing=10;spacingTop=-4;fillColor=#ffffff;glass=0;" parent="1" vertex="1">
                    <mxGeometry x="340" y="380" width="80" height="80" as="geometry"/>
                </mxCell>
                <mxCell id="15" value="" style="edgeStyle=orthogonalEdgeStyle;fontSize=12;html=1;endArrow=blockThin;endFill=1;rounded=0;strokeWidth=2;endSize=4;startSize=4;dashed=0;strokeColor=#CA2171;" parent="1" edge="1">
                    <mxGeometry width="100" relative="1" as="geometry">
                        <mxPoint x="330" y="299.76" as="sourcePoint"/>
                        <mxPoint x="220" y="299.76" as="targetPoint"/>
                    </mxGeometry>
                </mxCell>
                <mxCell id="18" value="" style="edgeStyle=orthogonalEdgeStyle;fontSize=12;html=1;endArrow=blockThin;endFill=1;rounded=0;strokeWidth=2;endSize=4;startSize=4;dashed=0;strokeColor=#CA2171;" parent="1" edge="1">
                    <mxGeometry width="100" relative="1" as="geometry">
                        <mxPoint x="429.9999999999999" y="299.76" as="sourcePoint"/>
                        <mxPoint x="540" y="299.76" as="targetPoint"/>
                    </mxGeometry>
                </mxCell>
                <mxCell id="19" value="&lt;b style=&quot;font-size: 10px;&quot;&gt;Replication&lt;/b&gt;" style="text;html=1;strokeColor=none;fillColor=none;align=center;verticalAlign=middle;whiteSpace=wrap;rounded=0;glass=0;fontColor=#4D4D4D;fontSize=10;" parent="1" vertex="1">
                    <mxGeometry x="237" y="278" width="80" height="20" as="geometry"/>
                </mxCell>
                <mxCell id="20" value="&lt;b style=&quot;font-size: 10px;&quot;&gt;Replication&lt;/b&gt;" style="text;html=1;strokeColor=none;fillColor=none;align=center;verticalAlign=middle;whiteSpace=wrap;rounded=0;glass=0;fontColor=#4D4D4D;fontSize=10;" parent="1" vertex="1">
                    <mxGeometry x="444" y="278" width="80" height="20" as="geometry"/>
                </mxCell>
                <mxCell id="21" value="&lt;p&gt;&lt;font style=&quot;font-size: 8px ; background-color: rgb(255 , 255 , 255)&quot;&gt;&lt;b style=&quot;line-height: 90%&quot;&gt;Kubernetes&amp;nbsp;&lt;/b&gt;&lt;/font&gt;&lt;font style=&quot;font-size: 8px ; background-color: rgb(255 , 255 , 255)&quot;&gt;&lt;b style=&quot;line-height: 90%&quot;&gt;Node&lt;/b&gt;&lt;/font&gt;&lt;/p&gt;" style="text;html=1;strokeColor=none;fillColor=none;align=left;verticalAlign=middle;whiteSpace=wrap;rounded=0;glass=0;fontColor=#4D4D4D;" parent="1" vertex="1">
                    <mxGeometry x="117" y="213" width="82" height="30" as="geometry"/>
                </mxCell>
                <mxCell id="22" value="&lt;p&gt;&lt;font style=&quot;font-size: 8px ; background-color: rgb(255 , 255 , 255)&quot;&gt;&lt;b style=&quot;line-height: 90%&quot;&gt;Kubernetes&amp;nbsp;&lt;/b&gt;&lt;/font&gt;&lt;font style=&quot;font-size: 8px ; background-color: rgb(255 , 255 , 255)&quot;&gt;&lt;b style=&quot;line-height: 90%&quot;&gt;Node&lt;/b&gt;&lt;/font&gt;&lt;/p&gt;" style="text;html=1;strokeColor=none;fillColor=none;align=left;verticalAlign=middle;whiteSpace=wrap;rounded=0;glass=0;fontColor=#4D4D4D;" parent="1" vertex="1">
                    <mxGeometry x="322" y="213" width="82" height="30" as="geometry"/>
                </mxCell>
                <mxCell id="23" value="&lt;p&gt;&lt;font style=&quot;font-size: 8px ; background-color: rgb(255 , 255 , 255)&quot;&gt;&lt;b style=&quot;line-height: 90%&quot;&gt;Kubernetes&amp;nbsp;&lt;/b&gt;&lt;/font&gt;&lt;font style=&quot;font-size: 8px ; background-color: rgb(255 , 255 , 255)&quot;&gt;&lt;b style=&quot;line-height: 90%&quot;&gt;Node&lt;/b&gt;&lt;/font&gt;&lt;/p&gt;" style="text;html=1;strokeColor=none;fillColor=none;align=left;verticalAlign=middle;whiteSpace=wrap;rounded=0;glass=0;fontColor=#4D4D4D;" parent="1" vertex="1">
                    <mxGeometry x="527" y="213" width="164" height="30" as="geometry"/>
                </mxCell>
                <mxCell id="24" value="&lt;p style=&quot;font-size: 11px&quot;&gt;&lt;font style=&quot;font-size: 11px ; background-color: rgb(255 , 255 , 255)&quot;&gt;&lt;b style=&quot;line-height: 90%&quot;&gt;Kubernetes&amp;nbsp;&lt;/b&gt;&lt;/font&gt;&lt;font style=&quot;font-size: 11px ; background-color: rgb(255 , 255 , 255)&quot;&gt;&lt;b style=&quot;line-height: 90%&quot;&gt;Cluster&lt;/b&gt;&lt;/font&gt;&lt;/p&gt;" style="text;html=1;strokeColor=none;fillColor=none;align=left;verticalAlign=middle;whiteSpace=wrap;rounded=0;glass=0;fontColor=#4D4D4D;" parent="1" vertex="1">
                    <mxGeometry x="78" y="175" width="132" height="30" as="geometry"/>
                </mxCell>
                <mxCell id="27" value="" style="points=[[0,0,0],[0.25,0,0],[0.5,0,0],[0.75,0,0],[1,0,0],[1,0.25,0],[1,0.5,0],[1,0.75,0],[1,1,0],[0.75,1,0],[0.5,1,0],[0.25,1,0],[0,1,0],[0,0.75,0],[0,0.5,0],[0,0.25,0]];rounded=1;absoluteArcSize=1;arcSize=2;html=1;strokeColor=#CA2171;gradientColor=none;shadow=0;fontSize=12;fontColor=#9E9E9E;align=left;verticalAlign=top;spacing=10;spacingTop=-4;fillColor=#FFFFFF;glass=0;" parent="1" vertex="1">
                    <mxGeometry x="650" y="380" width="160" height="80" as="geometry"/>
                </mxCell>
                <mxCell id="30" value="&lt;b&gt;&lt;font color=&quot;#ca2171&quot;&gt;Envoy +&lt;br&gt;Connect&lt;/font&gt;&lt;/b&gt;" style="points=[[0,0,0],[0.25,0,0],[0.5,0,0],[0.75,0,0],[1,0,0],[1,0.25,0],[1,0.5,0],[1,0.75,0],[1,1,0],[0.75,1,0],[0.5,1,0],[0.25,1,0],[0,1,0],[0,0.75,0],[0,0.5,0],[0,0.25,0]];rounded=1;absoluteArcSize=1;arcSize=2;html=1;strokeColor=#CA2171;gradientColor=none;shadow=0;fontSize=12;fontColor=#9E9E9E;align=center;verticalAlign=top;spacing=10;spacingTop=-4;fillColor=#FFFFFF;glass=0;" parent="1" vertex="1">
                    <mxGeometry x="660" y="390" width="60" height="60" as="geometry"/>
                </mxCell>
                <mxCell id="32" value="&lt;b&gt;&lt;font color=&quot;#ca2171&quot;&gt;Consul&lt;br&gt;Client&lt;/font&gt;&lt;/b&gt;" style="points=[[0,0,0],[0.25,0,0],[0.5,0,0],[0.75,0,0],[1,0,0],[1,0.25,0],[1,0.5,0],[1,0.75,0],[1,1,0],[0.75,1,0],[0.5,1,0],[0.25,1,0],[0,1,0],[0,0.75,0],[0,0.5,0],[0,0.25,0]];rounded=1;absoluteArcSize=1;arcSize=2;html=1;strokeColor=#CA2171;gradientColor=none;shadow=0;fontSize=12;fontColor=#9E9E9E;align=left;verticalAlign=top;spacing=10;spacingTop=-4;fillColor=#ffffff;glass=0;" parent="1" vertex="1">
                    <mxGeometry x="545" y="380" width="80" height="80" as="geometry"/>
                </mxCell>
                <mxCell id="33" value="&lt;font style=&quot;font-size: 12px&quot; color=&quot;#004c99&quot;&gt;&lt;b&gt;App A&lt;/b&gt;&lt;/font&gt;" style="points=[[0,0,0],[0.25,0,0],[0.5,0,0],[0.75,0,0],[1,0,0],[1,0.25,0],[1,0.5,0],[1,0.75,0],[1,1,0],[0.75,1,0],[0.5,1,0],[0.25,1,0],[0,1,0],[0,0.75,0],[0,0.5,0],[0,0.25,0]];rounded=1;absoluteArcSize=1;arcSize=2;html=1;strokeColor=#004C99;gradientColor=none;shadow=0;fontSize=12;fontColor=#9E9E9E;align=left;verticalAlign=top;spacing=10;spacingTop=-4;fillColor=#FFFFFF;glass=0;" parent="1" vertex="1">
                    <mxGeometry x="740" y="390" width="60" height="60" as="geometry"/>
                </mxCell>
                <mxCell id="34" value="" style="points=[[0,0,0],[0.25,0,0],[0.5,0,0],[0.75,0,0],[1,0,0],[1,0.25,0],[1,0.5,0],[1,0.75,0],[1,1,0],[0.75,1,0],[0.5,1,0],[0.25,1,0],[0,1,0],[0,0.75,0],[0,0.5,0],[0,0.25,0]];rounded=1;absoluteArcSize=1;arcSize=2;html=1;strokeColor=#CA2171;gradientColor=none;shadow=0;fontSize=12;fontColor=#9E9E9E;align=left;verticalAlign=top;spacing=10;spacingTop=-4;fillColor=#FFFFFF;glass=0;" parent="1" vertex="1">
                    <mxGeometry x="650" y="260" width="160" height="80" as="geometry"/>
                </mxCell>
                <mxCell id="35" value="&lt;b&gt;&lt;font color=&quot;#ca2171&quot;&gt;Envoy +&lt;br&gt;Connect&lt;/font&gt;&lt;/b&gt;" style="points=[[0,0,0],[0.25,0,0],[0.5,0,0],[0.75,0,0],[1,0,0],[1,0.25,0],[1,0.5,0],[1,0.75,0],[1,1,0],[0.75,1,0],[0.5,1,0],[0.25,1,0],[0,1,0],[0,0.75,0],[0,0.5,0],[0,0.25,0]];rounded=1;absoluteArcSize=1;arcSize=2;html=1;strokeColor=#CA2171;gradientColor=none;shadow=0;fontSize=12;fontColor=#9E9E9E;align=center;verticalAlign=top;spacing=10;spacingTop=-4;fillColor=#FFFFFF;glass=0;" parent="1" vertex="1">
                    <mxGeometry x="660" y="270" width="60" height="60" as="geometry"/>
                </mxCell>
                <mxCell id="36" value="&lt;font style=&quot;font-size: 12px&quot; color=&quot;#004c99&quot;&gt;&lt;b&gt;App B&lt;/b&gt;&lt;/font&gt;" style="points=[[0,0,0],[0.25,0,0],[0.5,0,0],[0.75,0,0],[1,0,0],[1,0.25,0],[1,0.5,0],[1,0.75,0],[1,1,0],[0.75,1,0],[0.5,1,0],[0.25,1,0],[0,1,0],[0,0.75,0],[0,0.5,0],[0,0.25,0]];rounded=1;absoluteArcSize=1;arcSize=2;html=1;strokeColor=#004C99;gradientColor=none;shadow=0;fontSize=12;fontColor=#9E9E9E;align=left;verticalAlign=top;spacing=10;spacingTop=-4;fillColor=#FFFFFF;glass=0;" parent="1" vertex="1">
                    <mxGeometry x="740" y="270" width="60" height="60" as="geometry"/>
                </mxCell>
                <mxCell id="37" value="" style="edgeStyle=orthogonalEdgeStyle;fontSize=12;html=1;endArrow=none;endFill=0;rounded=0;strokeWidth=2;endSize=4;startSize=4;dashed=0;strokeColor=#CA2171;exitX=0;exitY=0.5;exitDx=0;exitDy=0;exitPerimeter=0;entryX=1;entryY=0.5;entryDx=0;entryDy=0;entryPerimeter=0;" parent="1" source="30" target="32" edge="1">
                    <mxGeometry width="100" relative="1" as="geometry">
                        <mxPoint x="340" y="309.7600000000001" as="sourcePoint"/>
                        <mxPoint x="230" y="309.7600000000001" as="targetPoint"/>
                    </mxGeometry>
                </mxCell>
                <mxCell id="39" value="" style="edgeStyle=orthogonalEdgeStyle;fontSize=12;html=1;endArrow=none;endFill=0;rounded=0;strokeWidth=2;endSize=4;startSize=4;dashed=0;strokeColor=#CA2171;exitX=0.5;exitY=0;exitDx=0;exitDy=0;exitPerimeter=0;entryX=0.5;entryY=1;entryDx=0;entryDy=0;entryPerimeter=0;" parent="1" source="32" target="11" edge="1">
                    <mxGeometry width="100" relative="1" as="geometry">
                        <mxPoint x="670" y="430" as="sourcePoint"/>
                        <mxPoint x="635" y="430" as="targetPoint"/>
                    </mxGeometry>
                </mxCell>
                <mxCell id="40" value="" style="edgeStyle=orthogonalEdgeStyle;fontSize=12;html=1;endArrow=none;endFill=0;rounded=0;strokeWidth=2;endSize=4;startSize=4;dashed=0;strokeColor=#CA2171;exitX=1;exitY=0.5;exitDx=0;exitDy=0;exitPerimeter=0;entryX=0;entryY=0.5;entryDx=0;entryDy=0;entryPerimeter=0;" parent="1" source="32" target="35" edge="1">
                    <mxGeometry width="100" relative="1" as="geometry">
                        <mxPoint x="670" y="430" as="sourcePoint"/>
                        <mxPoint x="635" y="430" as="targetPoint"/>
                        <Array as="points">
                            <mxPoint x="640" y="420"/>
                            <mxPoint x="640" y="300"/>
                        </Array>
                    </mxGeometry>
                </mxCell>
                <mxCell id="42" value="" style="fontSize=12;html=1;endArrow=none;endFill=0;rounded=0;strokeWidth=2;endSize=4;startSize=4;dashed=0;strokeColor=#004C99;entryX=0;entryY=0.5;entryDx=0;entryDy=0;entryPerimeter=0;exitX=1;exitY=0.5;exitDx=0;exitDy=0;exitPerimeter=0;" parent="1" source="30" target="33" edge="1">
                    <mxGeometry width="100" relative="1" as="geometry">
                        <mxPoint x="440" y="309.7600000000001" as="sourcePoint"/>
                        <mxPoint x="550" y="309.7600000000001" as="targetPoint"/>
                    </mxGeometry>
                </mxCell>
                <mxCell id="43" value="" style="fontSize=12;html=1;endArrow=none;endFill=0;rounded=0;strokeWidth=2;endSize=4;startSize=4;dashed=0;strokeColor=#004C99;entryX=0;entryY=0.5;entryDx=0;entryDy=0;entryPerimeter=0;exitX=1;exitY=0.5;exitDx=0;exitDy=0;exitPerimeter=0;" parent="1" source="35" target="36" edge="1">
                    <mxGeometry width="100" relative="1" as="geometry">
                        <mxPoint x="740" y="430" as="sourcePoint"/>
                        <mxPoint x="750" y="430" as="targetPoint"/>
                    </mxGeometry>
                </mxCell>
                <mxCell id="44" value="" style="fontSize=12;html=1;endArrow=none;endFill=0;rounded=0;strokeWidth=2;endSize=4;startSize=4;dashed=0;strokeColor=#004C99;entryX=0.5;entryY=1;entryDx=0;entryDy=0;entryPerimeter=0;exitX=0.5;exitY=0;exitDx=0;exitDy=0;exitPerimeter=0;" parent="1" source="30" target="35" edge="1">
                    <mxGeometry width="100" relative="1" as="geometry">
                        <mxPoint x="740" y="430" as="sourcePoint"/>
                        <mxPoint x="750" y="430" as="targetPoint"/>
                    </mxGeometry>
                </mxCell>
                <mxCell id="45" value="&lt;p&gt;&lt;span style=&quot;font-size: 8px&quot;&gt;&lt;b&gt;&lt;font color=&quot;#e6e6e6&quot;&gt;Leader&lt;/font&gt;&lt;/b&gt;&lt;/span&gt;&lt;/p&gt;" style="text;html=1;strokeColor=none;fillColor=none;align=center;verticalAlign=middle;whiteSpace=wrap;rounded=0;glass=0;fontColor=#4D4D4D;" parent="1" vertex="1">
                    <mxGeometry x="340" y="320" width="40" height="20" as="geometry"/>
                </mxCell>
                <mxCell id="47" value="&lt;p&gt;&lt;span style=&quot;font-size: 8px&quot;&gt;&lt;b&gt;&lt;font color=&quot;#e6e6e6&quot;&gt;Follower&lt;/font&gt;&lt;/b&gt;&lt;/span&gt;&lt;/p&gt;" style="text;html=1;strokeColor=none;fillColor=none;align=center;verticalAlign=middle;whiteSpace=wrap;rounded=0;glass=0;fontColor=#000000;labelBackgroundColor=none;" parent="1" vertex="1">
                    <mxGeometry x="135" y="320" width="40" height="20" as="geometry"/>
                </mxCell>
                <mxCell id="48" value="&lt;p&gt;&lt;span style=&quot;font-size: 8px&quot;&gt;&lt;b&gt;&lt;font color=&quot;#e6e6e6&quot;&gt;Follower&lt;/font&gt;&lt;/b&gt;&lt;/span&gt;&lt;/p&gt;" style="text;html=1;strokeColor=none;fillColor=none;align=center;verticalAlign=middle;whiteSpace=wrap;rounded=0;glass=0;fontColor=#4D4D4D;" parent="1" vertex="1">
                    <mxGeometry x="545" y="320" width="40" height="20" as="geometry"/>
                </mxCell>
                <mxCell id="49" value="&lt;p&gt;&lt;span style=&quot;font-size: 8px ; background-color: rgb(255 , 255 , 255)&quot;&gt;&lt;b&gt;Pod&lt;/b&gt;&lt;/span&gt;&lt;/p&gt;" style="text;html=1;strokeColor=none;fillColor=none;align=left;verticalAlign=middle;whiteSpace=wrap;rounded=0;glass=0;fontColor=#4D4D4D;" parent="1" vertex="1">
                    <mxGeometry x="650" y="360" width="40" height="20" as="geometry"/>
                </mxCell>
                <mxCell id="50" value="&lt;p&gt;&lt;span style=&quot;font-size: 8px ; background-color: rgb(255 , 255 , 255)&quot;&gt;&lt;b&gt;Pod&lt;/b&gt;&lt;/span&gt;&lt;/p&gt;" style="text;html=1;strokeColor=none;fillColor=none;align=left;verticalAlign=middle;whiteSpace=wrap;rounded=0;glass=0;fontColor=#4D4D4D;" parent="1" vertex="1">
                    <mxGeometry x="650" y="240" width="40" height="20" as="geometry"/>
                </mxCell>
                <mxCell id="51" value="&lt;p&gt;&lt;span style=&quot;font-size: 8px ; background-color: rgb(255 , 255 , 255)&quot;&gt;&lt;b&gt;Pod&lt;/b&gt;&lt;/span&gt;&lt;/p&gt;" style="text;html=1;strokeColor=none;fillColor=none;align=left;verticalAlign=middle;whiteSpace=wrap;rounded=0;glass=0;fontColor=#4D4D4D;" parent="1" vertex="1">
                    <mxGeometry x="545" y="240" width="40" height="20" as="geometry"/>
                </mxCell>
                <mxCell id="52" value="&lt;p&gt;&lt;span style=&quot;font-size: 8px ; background-color: rgb(255 , 255 , 255)&quot;&gt;&lt;b&gt;Pod&lt;/b&gt;&lt;/span&gt;&lt;/p&gt;" style="text;html=1;strokeColor=none;fillColor=none;align=left;verticalAlign=middle;whiteSpace=wrap;rounded=0;glass=0;fontColor=#4D4D4D;" parent="1" vertex="1">
                    <mxGeometry x="545" y="360" width="40" height="20" as="geometry"/>
                </mxCell>
                <mxCell id="53" value="&lt;p&gt;&lt;span style=&quot;font-size: 8px ; background-color: rgb(255 , 255 , 255)&quot;&gt;&lt;b&gt;Pod&lt;/b&gt;&lt;/span&gt;&lt;/p&gt;" style="text;html=1;strokeColor=none;fillColor=none;align=left;verticalAlign=middle;whiteSpace=wrap;rounded=0;glass=0;fontColor=#4D4D4D;" parent="1" vertex="1">
                    <mxGeometry x="340" y="360" width="40" height="20" as="geometry"/>
                </mxCell>
                <mxCell id="54" value="&lt;p&gt;&lt;span style=&quot;font-size: 8px ; background-color: rgb(255 , 255 , 255)&quot;&gt;&lt;b&gt;Pod&lt;/b&gt;&lt;/span&gt;&lt;/p&gt;" style="text;html=1;strokeColor=none;fillColor=none;align=left;verticalAlign=middle;whiteSpace=wrap;rounded=0;glass=0;fontColor=#4D4D4D;" parent="1" vertex="1">
                    <mxGeometry x="340" y="240" width="40" height="20" as="geometry"/>
                </mxCell>
                <mxCell id="55" value="&lt;p&gt;&lt;span style=&quot;font-size: 8px ; background-color: rgb(255 , 255 , 255)&quot;&gt;&lt;b&gt;Pod&lt;/b&gt;&lt;/span&gt;&lt;/p&gt;" style="text;html=1;strokeColor=none;fillColor=none;align=left;verticalAlign=middle;whiteSpace=wrap;rounded=0;glass=0;fontColor=#4D4D4D;" parent="1" vertex="1">
                    <mxGeometry x="135" y="240" width="40" height="20" as="geometry"/>
                </mxCell>
                <mxCell id="56" value="&lt;p&gt;&lt;span style=&quot;font-size: 8px ; background-color: rgb(255 , 255 , 255)&quot;&gt;&lt;b&gt;Pod&lt;/b&gt;&lt;/span&gt;&lt;/p&gt;" style="text;html=1;strokeColor=none;fillColor=none;align=left;verticalAlign=middle;whiteSpace=wrap;rounded=0;glass=0;fontColor=#4D4D4D;" parent="1" vertex="1">
                    <mxGeometry x="135" y="360" width="40" height="20" as="geometry"/>
                </mxCell>
                <mxCell id="60" value="" style="edgeStyle=orthogonalEdgeStyle;fontSize=12;html=1;endArrow=none;endFill=0;rounded=0;strokeWidth=2;endSize=4;startSize=4;dashed=0;strokeColor=#CA2171;exitX=0.5;exitY=0;exitDx=0;exitDy=0;exitPerimeter=0;entryX=0.5;entryY=1;entryDx=0;entryDy=0;entryPerimeter=0;" parent="1" source="13" target="10" edge="1">
                    <mxGeometry width="100" relative="1" as="geometry">
                        <mxPoint x="595" y="390" as="sourcePoint"/>
                        <mxPoint x="595" y="350" as="targetPoint"/>
                    </mxGeometry>
                </mxCell>
                <mxCell id="62" value="" style="edgeStyle=orthogonalEdgeStyle;fontSize=12;html=1;endArrow=none;endFill=0;rounded=0;strokeWidth=2;endSize=4;startSize=4;dashed=0;strokeColor=#CA2171;exitX=0.5;exitY=0;exitDx=0;exitDy=0;exitPerimeter=0;entryX=1;entryY=1;entryDx=0;entryDy=0;" parent="1" source="12" target="47" edge="1">
                    <mxGeometry width="100" relative="1" as="geometry">
                        <mxPoint x="390" y="390" as="sourcePoint"/>
                        <mxPoint x="390" y="350" as="targetPoint"/>
                    </mxGeometry>
                </mxCell>
                <mxCell id="63" value="" style="points=[[0,0,0],[0.25,0,0],[0.5,0,0],[0.75,0,0],[1,0,0],[1,0.25,0],[1,0.5,0],[1,0.75,0],[1,1,0],[0.75,1,0],[0.5,1,0],[0.25,1,0],[0,1,0],[0,0.75,0],[0,0.5,0],[0,0.25,0]];rounded=1;absoluteArcSize=1;arcSize=2;html=1;strokeColor=#E6E6E6;gradientColor=none;shadow=0;fontSize=12;fontColor=#9E9E9E;align=left;verticalAlign=top;spacing=10;spacingTop=-4;strokeWidth=2;" parent="1" vertex="1">
                    <mxGeometry x="710" y="130" width="160" height="60" as="geometry"/>
                </mxCell>
                <mxCell id="70" value="" style="group" parent="1" vertex="1" connectable="0">
                    <mxGeometry x="717" y="137" width="116" height="42.71000000000001" as="geometry"/>
                </mxCell>
                <mxCell id="64" value="" style="fontSize=12;html=1;endArrow=none;endFill=0;rounded=0;strokeWidth=2;endSize=4;startSize=4;dashed=0;strokeColor=#CA2171;exitX=0;exitY=0.25;exitDx=0;exitDy=0;exitPerimeter=0;" parent="70" edge="1">
                    <mxGeometry width="100" relative="1" as="geometry">
                        <mxPoint x="2" y="20" as="sourcePoint"/>
                        <mxPoint x="116" y="20" as="targetPoint"/>
                    </mxGeometry>
                </mxCell>
                <mxCell id="65" value="" style="fontSize=12;html=1;endArrow=none;endFill=0;rounded=0;strokeWidth=2;endSize=4;startSize=4;dashed=0;strokeColor=#004C99;exitX=0;exitY=0.25;exitDx=0;exitDy=0;exitPerimeter=0;" parent="70" edge="1">
                    <mxGeometry width="100" relative="1" as="geometry">
                        <mxPoint x="2" y="42.71000000000001" as="sourcePoint"/>
                        <mxPoint x="116" y="42.71000000000001" as="targetPoint"/>
                    </mxGeometry>
                </mxCell>
                <mxCell id="67" value="&lt;p&gt;&lt;span style=&quot;font-size: 8px ; background-color: rgb(255 , 255 , 255)&quot;&gt;&lt;b&gt;&lt;font color=&quot;#ca2171&quot;&gt;Consul Traffic&lt;/font&gt;&lt;/b&gt;&lt;/span&gt;&lt;/p&gt;" style="text;html=1;strokeColor=none;fillColor=none;align=left;verticalAlign=middle;whiteSpace=wrap;rounded=0;glass=0;fontColor=#4D4D4D;" parent="70" vertex="1">
                    <mxGeometry width="82" height="17" as="geometry"/>
                </mxCell>
                <mxCell id="68" value="&lt;p&gt;&lt;span style=&quot;font-size: 8px ; background-color: rgb(255 , 255 , 255)&quot;&gt;&lt;b&gt;&lt;font color=&quot;#004c99&quot;&gt;App Traffic (Mutual TLS)&lt;/font&gt;&lt;/b&gt;&lt;/span&gt;&lt;/p&gt;" style="text;html=1;strokeColor=none;fillColor=none;align=left;verticalAlign=middle;whiteSpace=wrap;rounded=0;glass=0;fontColor=#4D4D4D;" parent="70" vertex="1">
                    <mxGeometry y="24" width="96" height="16" as="geometry"/>
                </mxCell>
                <mxCell id="69" style="edgeStyle=none;rounded=0;orthogonalLoop=1;jettySize=auto;html=1;exitX=0.5;exitY=1;exitDx=0;exitDy=0;endArrow=none;endFill=0;strokeColor=#004C99;fontColor=#000000;" parent="70" source="68" target="68" edge="1">
                    <mxGeometry relative="1" as="geometry"/>
                </mxCell>
                <mxCell id="75" value="" style="edgeStyle=orthogonalEdgeStyle;fontSize=12;html=1;endArrow=blockThin;endFill=1;rounded=0;strokeWidth=2;endSize=4;startSize=4;dashed=0;strokeColor=#CA2171;startArrow=blockThin;startFill=1;" parent="1" edge="1">
                    <mxGeometry width="100" relative="1" as="geometry">
                        <mxPoint x="428" y="420" as="sourcePoint"/>
                        <mxPoint x="538" y="420" as="targetPoint"/>
                    </mxGeometry>
                </mxCell>
                <mxCell id="76" value="" style="edgeStyle=orthogonalEdgeStyle;fontSize=12;html=1;endArrow=blockThin;endFill=1;rounded=0;strokeWidth=2;endSize=4;startSize=4;dashed=0;strokeColor=#CA2171;startArrow=blockThin;startFill=1;" parent="1" edge="1">
                    <mxGeometry width="100" relative="1" as="geometry">
                        <mxPoint x="222" y="419.71" as="sourcePoint"/>
                        <mxPoint x="332" y="419.71" as="targetPoint"/>
                    </mxGeometry>
                </mxCell>
                <mxCell id="77" value="&lt;b&gt;&lt;font style=&quot;font-size: 16px&quot; color=&quot;#4d4d4d&quot;&gt;Consul Datacenter Deployed in Kubernetes&lt;/font&gt;&lt;/b&gt;" style="text;html=1;strokeColor=none;fillColor=none;align=left;verticalAlign=middle;whiteSpace=wrap;rounded=0;" vertex="1" parent="1">
                    <mxGeometry x="78" y="137" width="350" height="27" as="geometry"/>
                </mxCell>
                <mxCell id="78" value="&lt;b&gt;LAN Gossip&lt;/b&gt;" style="text;html=1;strokeColor=none;fillColor=none;align=center;verticalAlign=middle;whiteSpace=wrap;rounded=0;glass=0;fontColor=#4D4D4D;fontSize=10;" vertex="1" parent="1">
                    <mxGeometry x="237" y="399" width="80" height="20" as="geometry"/>
                </mxCell>
                <mxCell id="81" value="&lt;b&gt;LAN Gossip&lt;/b&gt;" style="text;html=1;strokeColor=none;fillColor=none;align=center;verticalAlign=middle;whiteSpace=wrap;rounded=0;glass=0;fontColor=#4D4D4D;fontSize=10;" vertex="1" parent="1">
                    <mxGeometry x="444" y="399" width="80" height="20" as="geometry"/>
                </mxCell>
            </root>
        </mxGraphModel>
    </diagram>
</mxfile>